<svg width="30" height="31" viewBox="0 0 30 31" fill="none" xmlns="http://www.w3.org/2000/svg">
<path d="M19.6799 19.4028C18.2634 19.31 17.1496 18.1381 17.1496 16.7056C17.1496 16.6578 17.1505 16.61 17.1534 16.5622V16.5687C17.1505 16.5237 17.1487 16.4712 17.1487 16.4178C17.1487 14.9881 18.2643 13.82 19.6724 13.7347H19.6799C21.0946 13.8116 22.2121 14.9769 22.2121 16.4038C22.2121 16.4619 22.2102 16.5191 22.2065 16.5763V16.5687C22.2093 16.6156 22.2112 16.6709 22.2112 16.7263C22.2112 18.1541 21.0946 19.3213 19.6865 19.4019H19.679L19.6799 19.4028ZM10.3368 19.4028C8.92023 19.31 7.80648 18.1381 7.80648 16.7056C7.80648 16.6578 7.80742 16.61 7.81023 16.5622V16.5687C7.80742 16.5237 7.80555 16.4712 7.80555 16.4178C7.80555 14.9881 8.92117 13.82 10.3293 13.7347H10.3368C11.7515 13.8116 12.869 14.9769 12.869 16.4038C12.869 16.4619 12.8671 16.5191 12.8634 16.5763V16.5687C12.8662 16.6137 12.868 16.6663 12.868 16.7197C12.868 18.1494 11.7524 19.3175 10.3443 19.4028H10.3368ZM24.7434 6.56094C23.0905 5.78094 21.1705 5.16406 19.1605 4.80687L19.0209 4.78625C19.0162 4.78531 19.0105 4.78437 19.0049 4.78437C18.9721 4.78437 18.944 4.80219 18.929 4.82844C18.7096 5.21375 18.4715 5.69469 18.2568 6.18781L18.2165 6.29187C17.2509 6.13719 16.1371 6.04906 15.0027 6.04906C13.8684 6.04906 12.7546 6.13719 11.668 6.30687L11.789 6.29094C11.5359 5.70031 11.294 5.22031 11.0268 4.75531L11.0652 4.8275C11.0493 4.80031 11.0202 4.78344 10.9874 4.78344C10.9827 4.78344 10.9771 4.78344 10.9724 4.78437C8.82273 5.16219 6.90273 5.77812 5.10836 6.61906L5.24992 6.55906C5.23398 6.56562 5.22086 6.57687 5.21242 6.59094C2.5368 10.3794 0.935547 15.0931 0.935547 20.1809C0.935547 21.0312 0.980547 21.8703 1.06773 22.6972L1.0593 22.5941C1.06211 22.6213 1.07617 22.6437 1.09586 22.6597C3.10211 24.1606 5.43461 25.37 7.9518 26.1641L8.1168 26.2091C8.1243 26.2119 8.13367 26.2128 8.14305 26.2128C8.17305 26.2128 8.1993 26.1987 8.21523 26.1772C8.7168 25.5022 9.19398 24.7372 9.60742 23.9347L9.65148 23.8409C9.65711 23.8297 9.66086 23.8156 9.66086 23.8006C9.66086 23.7622 9.63648 23.7303 9.60273 23.7172H9.6018C8.7468 23.3872 8.02398 23.0356 7.33586 22.6325L7.40805 22.6719C7.38086 22.6559 7.36305 22.6269 7.36305 22.5941C7.36305 22.565 7.37711 22.5387 7.39867 22.5228C7.54586 22.4122 7.69398 22.2978 7.83461 22.1816C7.84961 22.1694 7.8693 22.1619 7.88992 22.1619C7.90305 22.1619 7.91523 22.1647 7.92555 22.1694H7.92461C9.99461 23.1641 12.4246 23.7453 14.9896 23.7453C17.5546 23.7453 19.9855 23.1641 22.1549 22.1263L22.0546 22.1694C22.0659 22.1637 22.078 22.1609 22.0921 22.1609C22.1127 22.1609 22.1324 22.1684 22.1474 22.1806C22.288 22.2969 22.4352 22.4131 22.5843 22.5228C22.6059 22.5397 22.6199 22.5659 22.6199 22.595C22.6199 22.6278 22.6021 22.6559 22.5768 22.6719C21.9571 23.0422 21.2343 23.3928 20.4815 23.6825L20.383 23.7162C20.3493 23.7294 20.3249 23.7622 20.3249 23.7997C20.3249 23.8147 20.3287 23.8287 20.3352 23.8409C20.8049 24.7409 21.2812 25.5041 21.808 26.2288L21.7705 26.1753C21.7865 26.1978 21.8137 26.2128 21.8427 26.2128C21.8521 26.2128 21.8615 26.2109 21.8699 26.2091C24.5559 25.3728 26.8921 24.1634 28.9621 22.6166L28.9012 22.6606C28.9218 22.6456 28.9349 22.6222 28.9377 22.5959C29.0193 21.8609 29.0652 21.0078 29.0652 20.1444C29.0652 15.0678 27.4602 10.3662 24.7312 6.51875L24.7799 6.59187C24.7724 6.57687 24.7593 6.56469 24.7443 6.55812L24.7434 6.56094Z" fill="rgba(245, 245, 245, 0.95)"/>
</svg>
