<svg width="220" height="76" viewBox="0 0 220 76" fill="none" xmlns="http://www.w3.org/2000/svg">
<path d="M188.2 75.6C181.733 75.6 176.033 74.1333 171.1 71.2C166.167 68.2 162.3 63.9667 159.5 58.5C156.7 52.9667 155.3 46.3333 155.3 38.6C155.3 31 156.667 24.4333 159.4 18.9C162.133 13.3 165.967 9 170.9 6C175.833 2.93333 181.633 1.4 188.3 1.4C197.367 1.4 204.4 3.66666 209.4 8.19999C214.4 12.6667 217.667 18.9333 219.2 27L205.6 27.7C204.733 23.0333 202.867 19.3667 200 16.7C197.133 14.0333 193.233 12.7 188.3 12.7C184.3 12.7 180.833 13.7667 177.9 15.9C174.967 18.0333 172.7 21.0333 171.1 24.9C169.5 28.7667 168.7 33.3333 168.7 38.6C168.7 43.9333 169.5 48.5333 171.1 52.4C172.767 56.2 175.067 59.1333 178 61.2C180.933 63.2667 184.333 64.3 188.2 64.3C193.467 64.3 197.533 62.8667 200.4 60C203.333 57.0667 205.2 53.0667 206 48L219.6 48.7C218.667 54.2333 216.867 59.0333 214.2 63.1C211.533 67.1 208 70.2 203.6 72.4C199.267 74.5333 194.133 75.6 188.2 75.6Z" fill="#C0C0C0"/>
<path d="M81.2 74.6C74.7333 74.6 69.0333 73.1333 64.1 70.2C59.1667 67.2 55.3 62.9 52.5 57.3C49.7 51.7 48.3 45.1333 48.3 37.6C48.3 30.1333 49.6667 23.6 52.4 18C55.1333 12.3333 58.9667 8 63.9 5C68.9 1.93333 74.7333 0.399999 81.4 0.399999C90.2 0.399999 97.1333 2.6 102.2 7C107.333 11.4 110.667 17.7333 112.2 26L98.6 26.7C97.7333 21.9667 95.8333 18.3 92.9 15.7C90.0333 13.0333 86.2 11.7 81.4 11.7C77.4 11.7 73.9 12.7667 70.9 14.9C67.9667 16.9667 65.7 19.9667 64.1 23.9C62.5667 27.7667 61.8 32.3333 61.8 37.6C61.8 42.8667 62.6 47.4333 64.2 51.3C65.8 55.1667 68.0667 58.1333 71 60.2C73.9333 62.2667 77.3667 63.3 81.3 63.3C86.4333 63.3 90.4667 61.9 93.4 59.1C96.3333 56.2333 98.2 52.2 99 47L112.6 47.7C111.2 56.2333 107.8 62.8667 102.4 67.6C97.0667 72.2667 90 74.6 81.2 74.6Z" fill="#7D7D7D"/>
<path d="M138.8 75.6C132.933 75.6 127.867 74.5667 123.6 72.5C119.333 70.4333 115.967 67.5667 113.5 63.9C111.1 60.1667 109.7 55.8333 109.3 50.9L122.5 50.1C122.9 53.1667 123.767 55.7667 125.1 57.9C126.5 60.0333 128.333 61.6667 130.6 62.8C132.933 63.8667 135.733 64.4 139 64.4C141.8 64.4 144.167 64.0667 146.1 63.4C148.1 62.6667 149.6 61.6333 150.6 60.3C151.667 58.9 152.2 57.2 152.2 55.2C152.2 53.4 151.767 51.8 150.9 50.4C150.033 48.9333 148.367 47.6333 145.9 46.5C143.433 45.3 139.767 44.1333 134.9 43C129.033 41.6667 124.333 40.1667 120.8 38.5C117.267 36.7667 114.7 34.6333 113.1 32.1C111.5 29.5 110.7 26.2667 110.7 22.4C110.7 18.2667 111.733 14.6333 113.8 11.5C115.867 8.3 118.8 5.83333 122.6 4.09999C126.4 2.3 130.967 1.4 136.3 1.4C141.967 1.4 146.767 2.43333 150.7 4.49999C154.633 6.5 157.733 9.26666 160 12.8C162.267 16.3333 163.667 20.4 164.2 25L151.1 25.6C150.767 23 149.967 20.7333 148.7 18.8C147.5 16.8667 145.833 15.3667 143.7 14.3C141.633 13.1667 139.1 12.6 136.1 12.6C132.367 12.6 129.4 13.4667 127.2 15.2C125.067 16.8667 124 19.1 124 21.9C124 23.8333 124.433 25.4333 125.3 26.7C126.233 27.9667 127.867 29.0667 130.2 30C132.533 30.8667 135.8 31.8 140 32.8C146.333 34.1333 151.367 35.8333 155.1 37.9C158.833 39.9667 161.5 42.3667 163.1 45.1C164.7 47.8333 165.5 50.9667 165.5 54.5C165.5 58.8333 164.4 62.6 162.2 65.8C160 68.9333 156.9 71.3667 152.9 73.1C148.9 74.7667 144.2 75.6 138.8 75.6Z" fill="#565656"/>
<path d="M29.8 75.6C23.9333 75.6 18.8667 74.5667 14.6 72.5C10.3333 70.4333 6.96667 67.5667 4.5 63.9C2.1 60.1667 0.7 55.8333 0.3 50.9L13.5 50.1C13.9 53.1667 14.7667 55.7667 16.1 57.9C17.5 60.0333 19.3333 61.6667 21.6 62.8C23.9333 63.8667 26.7333 64.4 30 64.4C32.8 64.4 35.1667 64.0667 37.1 63.4C39.1 62.6667 40.6 61.6333 41.6 60.3C42.6667 58.9 43.2 57.2 43.2 55.2C43.2 53.4 42.7667 51.8 41.9 50.4C41.0333 48.9333 39.3667 47.6333 36.9 46.5C34.4333 45.3 30.7667 44.1333 25.9 43C20.0333 41.6667 15.3333 40.1667 11.8 38.5C8.26667 36.7667 5.7 34.6333 4.1 32.1C2.5 29.5 1.7 26.2667 1.7 22.4C1.7 18.2667 2.73333 14.6333 4.8 11.5C6.86667 8.3 9.8 5.83333 13.6 4.09999C17.4 2.3 21.9667 1.4 27.3 1.4C32.9667 1.4 37.7667 2.43333 41.7 4.49999C45.6333 6.5 48.7333 9.26666 51 12.8C53.2667 16.3333 54.6667 20.4 55.2 25L42.1 25.6C41.7667 23 40.9667 20.7333 39.7 18.8C38.5 16.8667 36.8333 15.3667 34.7 14.3C32.6333 13.1667 30.1 12.6 27.1 12.6C23.3667 12.6 20.4 13.4667 18.2 15.2C16.0667 16.8667 15 19.1 15 21.9C15 23.8333 15.4333 25.4333 16.3 26.7C17.2333 27.9667 18.8667 29.0667 21.2 30C23.5333 30.8667 26.8 31.8 31 32.8C37.3333 34.1333 42.3667 35.8333 46.1 37.9C49.8333 39.9667 52.5 42.3667 54.1 45.1C55.7 47.8333 56.5 50.9667 56.5 54.5C56.5 58.8333 55.4 62.6 53.2 65.8C51 68.9333 47.9 71.3667 43.9 73.1C39.9 74.7667 35.2 75.6 29.8 75.6Z" fill="#484848"/>
</svg>
