<svg width="47" height="46" viewBox="0 0 47 46" fill="none" xmlns="http://www.w3.org/2000/svg">
<rect x="1" y="0.5" width="45" height="45" rx="22.5" stroke="#7D7D7D"/>
<path d="M25.5334 29.8625L22.674 30.1167C22.674 30.1167 24.0719 25.0969 25.0886 21.7292C25.2279 21.3482 25.2763 20.9399 25.2299 20.5369C25.1835 20.134 25.0437 19.7474 24.8215 19.4079C24.5994 19.0685 24.301 18.7857 23.9503 18.582C23.5995 18.3782 23.206 18.2592 22.8011 18.2344C22.4775 18.2329 22.1572 18.3001 21.8615 18.4315C21.5657 18.563 21.3012 18.7557 21.0855 18.9969L18.5438 21.0938C18.474 21.1593 18.4271 21.2456 18.4103 21.3399C18.3934 21.4342 18.4074 21.5314 18.4503 21.6171C18.4931 21.7028 18.5625 21.7723 18.648 21.8154C18.7336 21.8585 18.8307 21.8728 18.9251 21.8563L21.7844 21.6021L19.3699 29.9896C19.2306 30.3706 19.1822 30.7788 19.2286 31.1818C19.2749 31.5848 19.4148 31.9714 19.6369 32.3108C19.8591 32.6502 20.1574 32.9331 20.5082 33.1368C20.859 33.3406 21.2525 33.4596 21.6574 33.4844C21.981 33.4859 22.3013 33.4187 22.597 33.2873C22.8927 33.1558 23.1572 32.9631 23.373 32.7219L25.9147 30.625C25.9845 30.5595 26.0314 30.4731 26.0482 30.3789C26.0651 30.2846 26.051 30.1873 26.0082 30.1017C25.9654 30.016 25.896 29.9464 25.8105 29.9034C25.7249 29.8603 25.6277 29.8459 25.5334 29.8625Z" fill="#F5F5F5"/>
<path d="M24.7705 16.6458C25.8233 16.6458 26.6768 15.7924 26.6768 14.7396C26.6768 13.6868 25.8233 12.8333 24.7705 12.8333C23.7177 12.8333 22.8643 13.6868 22.8643 14.7396C22.8643 15.7924 23.7177 16.6458 24.7705 16.6458Z" fill="#F5F5F5"/>
</svg>
