<svg width="47" height="46" viewBox="0 0 47 46" fill="none" xmlns="http://www.w3.org/2000/svg">
<rect x="1" y="0.5" width="45" height="45" rx="22.5" stroke="#7D7D7D"/>
<path fill-rule="evenodd" clip-rule="evenodd" d="M23.5002 12.9792C22.4532 12.9792 21.6044 13.828 21.6044 14.875C21.6044 15.922 22.4532 16.7708 23.5002 16.7708C24.5473 16.7708 25.396 15.922 25.396 14.875C25.396 13.828 24.5473 12.9792 23.5002 12.9792ZM19.9794 14.875C19.9794 12.9305 21.5557 11.3542 23.5002 11.3542C25.4447 11.3542 27.021 12.9305 27.021 14.875C27.021 16.8195 25.4447 18.3958 23.5002 18.3958C21.5557 18.3958 19.9794 16.8195 19.9794 14.875ZM23.5002 20.5848C23.1143 20.5848 22.7645 20.607 22.5675 20.6404L21.6016 20.8031C19.4213 21.1703 17.8127 23.0797 17.8127 25.3294C17.8127 26.5003 17.2337 27.5971 16.2641 28.2503L16.1544 28.3242C15.8784 28.5101 15.5789 28.6581 15.2637 28.7642L14.0096 29.1867C13.5843 29.3299 13.1235 29.1012 12.9802 28.676C12.837 28.2508 13.0656 27.7899 13.4909 27.6466L14.745 27.2242C14.9221 27.1646 15.0908 27.0812 15.2465 26.9764L15.3562 26.9025C15.8736 26.554 16.1877 25.9644 16.1877 25.3294C16.1877 22.2987 18.3572 19.7016 21.3317 19.2007L22.2959 19.0383C22.2958 19.0383 22.296 19.0383 22.2959 19.0383C22.6256 18.9824 23.0811 18.9598 23.5002 18.9598C23.9192 18.9598 24.3745 18.9823 24.7044 19.0383C24.7043 19.0382 24.7046 19.0383 24.7044 19.0383L25.6687 19.2007C28.6432 19.7016 30.8127 22.2987 30.8127 25.3294C30.8127 25.9644 31.1269 26.554 31.6443 26.9025L31.7539 26.9764C31.9097 27.0812 32.0783 27.1646 32.2554 27.2242L33.5096 27.6466C33.9348 27.7899 34.1635 28.2508 34.0202 28.676C33.877 29.1012 33.4162 29.3299 32.9909 29.1867L31.7367 28.7642C31.4215 28.6581 31.122 28.5101 30.8461 28.3242L30.7363 28.2503C29.7668 27.5971 29.1877 26.5003 29.1877 25.3294C29.1877 23.0797 27.5791 21.1703 25.3989 20.8031L24.4327 20.6404C24.2359 20.607 23.8862 20.5848 23.5002 20.5848ZM20.1419 26.8458C20.4111 26.4868 20.9204 26.4141 21.2794 26.6833C21.6384 26.9525 21.7111 27.4618 21.4419 27.8208L20.4403 29.1563C20.4324 29.1669 20.4245 29.1774 20.4168 29.1877C20.2798 29.3704 20.1721 29.5141 20.048 29.6439C19.7427 29.963 19.3702 30.2103 18.9575 30.3679C18.7898 30.4319 18.6156 30.4754 18.394 30.5307C18.3815 30.5338 18.3687 30.5371 18.3559 30.5402L16.413 31.026C15.9623 31.1387 15.646 31.5437 15.646 32.0082C15.646 32.5675 16.0994 33.0208 16.6586 33.0208H17.3993C19.0741 33.0208 20.7036 32.4777 22.0435 31.4729L24.096 29.9333C24.4551 29.6641 24.9643 29.7368 25.2335 30.0958C25.5028 30.4549 25.4301 30.9641 25.071 31.2333L24.091 31.9684L24.6237 32.1681C25.2021 32.385 25.463 32.4825 25.7251 32.5645C26.5139 32.8111 27.3303 32.9591 28.1556 33.0052C28.4297 33.0205 28.7082 33.0208 29.3259 33.0208H30.3418C30.901 33.0208 31.3544 32.5675 31.3544 32.0082C31.3544 31.5437 31.0382 31.1387 30.5874 31.026L28.991 30.6269C28.9611 30.6194 28.9315 30.612 28.9024 30.6048C28.3871 30.4763 27.9806 30.3749 27.6172 30.1655C27.5085 30.1029 27.404 30.0334 27.3042 29.9576C26.9701 29.7041 26.7189 29.3687 26.4006 28.9436C26.3825 28.9196 26.3643 28.8952 26.3458 28.8705L25.5585 27.8208C25.2893 27.4618 25.362 26.9525 25.721 26.6833C26.0801 26.4141 26.5893 26.4868 26.8585 26.8458L27.6458 27.8955C28.045 28.4278 28.1566 28.5645 28.2866 28.6632C28.332 28.6977 28.3795 28.7292 28.4289 28.7577C28.5703 28.8393 28.7396 28.889 29.3852 29.0504L30.9815 29.4495C32.1557 29.743 32.9794 30.7981 32.9794 32.0082C32.9794 33.465 31.7985 34.6458 30.3418 34.6458H29.2985C28.7153 34.6458 28.3896 34.6458 28.0649 34.6277C27.1059 34.5741 26.1571 34.4021 25.2403 34.1155C24.9299 34.0185 24.625 33.9042 24.0789 33.6993L22.5269 33.1174C21.0064 34.1123 19.2251 34.6458 17.3993 34.6458H16.6586C15.2019 34.6458 14.021 33.465 14.021 32.0082C14.021 30.7981 14.8448 29.743 16.0189 29.4495L17.9618 28.9638C18.2388 28.8945 18.3127 28.8746 18.378 28.8497C18.5656 28.7782 18.7349 28.6657 18.8737 28.5207C18.922 28.4701 18.969 28.4096 19.1403 28.1813L20.1419 26.8458Z" fill="#F5F5F5"/>
</svg>
