<svg width="220" height="75" viewBox="0 0 220 75" fill="none" xmlns="http://www.w3.org/2000/svg">
<path d="M188.2 74.6C181.733 74.6 176.033 73.1333 171.1 70.2C166.167 67.2 162.3 62.9667 159.5 57.5C156.7 51.9667 155.3 45.3333 155.3 37.6C155.3 30 156.667 23.4333 159.4 17.9C162.133 12.3 165.967 8 170.9 5C175.833 1.93333 181.633 0.399999 188.3 0.399999C197.367 0.399999 204.4 2.66666 209.4 7.19999C214.4 11.6667 217.667 17.9333 219.2 26L205.6 26.7C204.733 22.0333 202.867 18.3667 200 15.7C197.133 13.0333 193.233 11.7 188.3 11.7C184.3 11.7 180.833 12.7667 177.9 14.9C174.967 17.0333 172.7 20.0333 171.1 23.9C169.5 27.7667 168.7 32.3333 168.7 37.6C168.7 42.9333 169.5 47.5333 171.1 51.4C172.767 55.2 175.067 58.1333 178 60.2C180.933 62.2667 184.333 63.3 188.2 63.3C193.467 63.3 197.533 61.8667 200.4 59C203.333 56.0667 205.2 52.0667 206 47L219.6 47.7C218.667 53.2333 216.867 58.0333 214.2 62.1C211.533 66.1 208 69.2 203.6 71.4C199.267 73.5333 194.133 74.6 188.2 74.6Z" fill="#C7C7C7"/>
<path d="M81.2 74.6C74.7333 74.6 69.0333 73.1333 64.1 70.2C59.1667 67.2 55.3 62.9667 52.5 57.5C49.7 51.9667 48.3 45.3333 48.3 37.6C48.3 30 49.6667 23.4333 52.4 17.9C55.1333 12.3 58.9667 8 63.9 5C68.8333 1.93333 74.6333 0.399999 81.3 0.399999C90.3667 0.399999 97.4 2.66666 102.4 7.19999C107.4 11.6667 110.667 17.9333 112.2 26L98.6 26.7C97.7333 22.0333 95.8667 18.3667 93 15.7C90.1333 13.0333 86.2333 11.7 81.3 11.7C77.3 11.7 73.8333 12.7667 70.9 14.9C67.9667 17.0333 65.7 20.0333 64.1 23.9C62.5 27.7667 61.7 32.3333 61.7 37.6C61.7 42.9333 62.5 47.5333 64.1 51.4C65.7667 55.2 68.0667 58.1333 71 60.2C73.9333 62.2667 77.3333 63.3 81.2 63.3C86.4667 63.3 90.5333 61.8667 93.4 59C96.3333 56.0667 98.2 52.0667 99 47L112.6 47.7C111.667 53.2333 109.867 58.0333 107.2 62.1C104.533 66.1 101 69.2 96.6 71.4C92.2667 73.5333 87.1333 74.6 81.2 74.6Z" fill="#818181"/>
<path d="M138.8 74.6C132.933 74.6 127.867 73.5667 123.6 71.5C119.333 69.4333 115.967 66.5667 113.5 62.9C111.1 59.1667 109.7 54.8333 109.3 49.9L122.5 49.1C122.9 52.1667 123.767 54.7667 125.1 56.9C126.5 59.0333 128.333 60.6667 130.6 61.8C132.933 62.8667 135.733 63.4 139 63.4C141.8 63.4 144.167 63.0667 146.1 62.4C148.1 61.6667 149.6 60.6333 150.6 59.3C151.667 57.9 152.2 56.2 152.2 54.2C152.2 52.4 151.767 50.8 150.9 49.4C150.033 47.9333 148.367 46.6333 145.9 45.5C143.433 44.3 139.767 43.1333 134.9 42C129.033 40.6667 124.333 39.1667 120.8 37.5C117.267 35.7667 114.7 33.6333 113.1 31.1C111.5 28.5 110.7 25.2667 110.7 21.4C110.7 17.2667 111.733 13.6333 113.8 10.5C115.867 7.3 118.8 4.83333 122.6 3.09999C126.4 1.3 130.967 0.399999 136.3 0.399999C141.967 0.399999 146.767 1.43333 150.7 3.49999C154.633 5.5 157.733 8.26666 160 11.8C162.267 15.3333 163.667 19.4 164.2 24L151.1 24.6C150.767 22 149.967 19.7333 148.7 17.8C147.5 15.8667 145.833 14.3667 143.7 13.3C141.633 12.1667 139.1 11.6 136.1 11.6C132.367 11.6 129.4 12.4667 127.2 14.2C125.067 15.8667 124 18.1 124 20.9C124 22.8333 124.433 24.4333 125.3 25.7C126.233 26.9667 127.867 28.0667 130.2 29C132.533 29.8667 135.8 30.8 140 31.8C146.333 33.1333 151.367 34.8333 155.1 36.9C158.833 38.9667 161.5 41.3667 163.1 44.1C164.7 46.8333 165.5 49.9667 165.5 53.5C165.5 57.8333 164.4 61.6 162.2 64.8C160 67.9333 156.9 70.3667 152.9 72.1C148.9 73.7667 144.2 74.6 138.8 74.6Z" fill="white"/>
<path d="M29.8 74.6C23.9333 74.6 18.8667 73.5667 14.6 71.5C10.3333 69.4333 6.96667 66.5667 4.5 62.9C2.1 59.1667 0.7 54.8333 0.3 49.9L13.5 49.1C13.9 52.1667 14.7667 54.7667 16.1 56.9C17.5 59.0333 19.3333 60.6667 21.6 61.8C23.9333 62.8667 26.7333 63.4 30 63.4C32.8 63.4 35.1667 63.0667 37.1 62.4C39.1 61.6667 40.6 60.6333 41.6 59.3C42.6667 57.9 43.2 56.2 43.2 54.2C43.2 52.4 42.7667 50.8 41.9 49.4C41.0333 47.9333 39.3667 46.6333 36.9 45.5C34.4333 44.3 30.7667 43.1333 25.9 42C20.0333 40.6667 15.3333 39.1667 11.8 37.5C8.26667 35.7667 5.7 33.6333 4.1 31.1C2.5 28.5 1.7 25.2667 1.7 21.4C1.7 17.2667 2.73333 13.6333 4.8 10.5C6.86667 7.3 9.8 4.83333 13.6 3.09999C17.4 1.3 21.9667 0.399999 27.3 0.399999C32.9667 0.399999 37.7667 1.43333 41.7 3.49999C45.6333 5.5 48.7333 8.26666 51 11.8C53.2667 15.3333 54.6667 19.4 55.2 24L42.1 24.6C41.7667 22 40.9667 19.7333 39.7 17.8C38.5 15.8667 36.8333 14.3667 34.7 13.3C32.6333 12.1667 30.1 11.6 27.1 11.6C23.3667 11.6 20.4 12.4667 18.2 14.2C16.0667 15.8667 15 18.1 15 20.9C15 22.8333 15.4333 24.4333 16.3 25.7C17.2333 26.9667 18.8667 28.0667 21.2 29C23.5333 29.8667 26.8 30.8 31 31.8C37.3333 33.1333 42.3667 34.8333 46.1 36.9C49.8333 38.9667 52.5 41.3667 54.1 44.1C55.7 46.8333 56.5 49.9667 56.5 53.5C56.5 57.8333 55.4 61.6 53.2 64.8C51 67.9333 47.9 70.3667 43.9 72.1C39.9 73.7667 35.2 74.6 29.8 74.6Z" fill="#F5F5F5"/>
</svg>
