<svg width="329" height="289" viewBox="0 0 329 289" fill="none" xmlns="http://www.w3.org/2000/svg">
<rect width="329" height="289" fill="#1A1A1A"/>
<path d="M243.2 181.6C236.733 181.6 231.033 180.133 226.1 177.2C221.167 174.2 217.3 169.967 214.5 164.5C211.7 158.967 210.3 152.333 210.3 144.6C210.3 137 211.667 130.433 214.4 124.9C217.133 119.3 220.967 115 225.9 112C230.833 108.933 236.633 107.4 243.3 107.4C252.367 107.4 259.4 109.667 264.4 114.2C269.4 118.667 272.667 124.933 274.2 133L260.6 133.7C259.733 129.033 257.867 125.367 255 122.7C252.133 120.033 248.233 118.7 243.3 118.7C239.3 118.7 235.833 119.767 232.9 121.9C229.967 124.033 227.7 127.033 226.1 130.9C224.5 134.767 223.7 139.333 223.7 144.6C223.7 149.933 224.5 154.533 226.1 158.4C227.767 162.2 230.067 165.133 233 167.2C235.933 169.267 239.333 170.3 243.2 170.3C248.467 170.3 252.533 168.867 255.4 166C258.333 163.067 260.2 159.067 261 154L274.6 154.7C273.667 160.233 271.867 165.033 269.2 169.1C266.533 173.1 263 176.2 258.6 178.4C254.267 180.533 249.133 181.6 243.2 181.6Z" fill="#C7C7C7"/>
<path d="M136.2 181.6C129.733 181.6 124.033 180.133 119.1 177.2C114.167 174.2 110.3 169.967 107.5 164.5C104.7 158.967 103.3 152.333 103.3 144.6C103.3 137 104.667 130.433 107.4 124.9C110.133 119.3 113.967 115 118.9 112C123.833 108.933 129.633 107.4 136.3 107.4C145.367 107.4 152.4 109.667 157.4 114.2C162.4 118.667 165.667 124.933 167.2 133L153.6 133.7C152.733 129.033 150.867 125.367 148 122.7C145.133 120.033 141.233 118.7 136.3 118.7C132.3 118.7 128.833 119.767 125.9 121.9C122.967 124.033 120.7 127.033 119.1 130.9C117.5 134.767 116.7 139.333 116.7 144.6C116.7 149.933 117.5 154.533 119.1 158.4C120.767 162.2 123.067 165.133 126 167.2C128.933 169.267 132.333 170.3 136.2 170.3C141.467 170.3 145.533 168.867 148.4 166C151.333 163.067 153.2 159.067 154 154L167.6 154.7C166.667 160.233 164.867 165.033 162.2 169.1C159.533 173.1 156 176.2 151.6 178.4C147.267 180.533 142.133 181.6 136.2 181.6Z" fill="#818181"/>
<path d="M193.8 181.6C187.933 181.6 182.867 180.567 178.6 178.5C174.333 176.433 170.967 173.567 168.5 169.9C166.1 166.167 164.7 161.833 164.3 156.9L177.5 156.1C177.9 159.167 178.767 161.767 180.1 163.9C181.5 166.033 183.333 167.667 185.6 168.8C187.933 169.867 190.733 170.4 194 170.4C196.8 170.4 199.167 170.067 201.1 169.4C203.1 168.667 204.6 167.633 205.6 166.3C206.667 164.9 207.2 163.2 207.2 161.2C207.2 159.4 206.767 157.8 205.9 156.4C205.033 154.933 203.367 153.633 200.9 152.5C198.433 151.3 194.767 150.133 189.9 149C184.033 147.667 179.333 146.167 175.8 144.5C172.267 142.767 169.7 140.633 168.1 138.1C166.5 135.5 165.7 132.267 165.7 128.4C165.7 124.267 166.733 120.633 168.8 117.5C170.867 114.3 173.8 111.833 177.6 110.1C181.4 108.3 185.967 107.4 191.3 107.4C196.967 107.4 201.767 108.433 205.7 110.5C209.633 112.5 212.733 115.267 215 118.8C217.267 122.333 218.667 126.4 219.2 131L206.1 131.6C205.767 129 204.967 126.733 203.7 124.8C202.5 122.867 200.833 121.367 198.7 120.3C196.633 119.167 194.1 118.6 191.1 118.6C187.367 118.6 184.4 119.467 182.2 121.2C180.067 122.867 179 125.1 179 127.9C179 129.833 179.433 131.433 180.3 132.7C181.233 133.967 182.867 135.067 185.2 136C187.533 136.867 190.8 137.8 195 138.8C201.333 140.133 206.367 141.833 210.1 143.9C213.833 145.967 216.5 148.367 218.1 151.1C219.7 153.833 220.5 156.967 220.5 160.5C220.5 164.833 219.4 168.6 217.2 171.8C215 174.933 211.9 177.367 207.9 179.1C203.9 180.767 199.2 181.6 193.8 181.6Z" fill="white"/>
<path d="M84.8 181.6C78.9333 181.6 73.8667 180.567 69.6 178.5C65.3333 176.433 61.9667 173.567 59.5 169.9C57.1 166.167 55.7 161.833 55.3 156.9L68.5 156.1C68.9 159.167 69.7667 161.767 71.1 163.9C72.5 166.033 74.3333 167.667 76.6 168.8C78.9333 169.867 81.7333 170.4 85 170.4C87.8 170.4 90.1667 170.067 92.1 169.4C94.1 168.667 95.6 167.633 96.6 166.3C97.6667 164.9 98.2 163.2 98.2 161.2C98.2 159.4 97.7667 157.8 96.9 156.4C96.0333 154.933 94.3667 153.633 91.9 152.5C89.4333 151.3 85.7667 150.133 80.9 149C75.0333 147.667 70.3333 146.167 66.8 144.5C63.2667 142.767 60.7 140.633 59.1 138.1C57.5 135.5 56.7 132.267 56.7 128.4C56.7 124.267 57.7333 120.633 59.8 117.5C61.8667 114.3 64.8 111.833 68.6 110.1C72.4 108.3 76.9667 107.4 82.3 107.4C87.9667 107.4 92.7667 108.433 96.7 110.5C100.633 112.5 103.733 115.267 106 118.8C108.267 122.333 109.667 126.4 110.2 131L97.1 131.6C96.7667 129 95.9667 126.733 94.7 124.8C93.5 122.867 91.8333 121.367 89.7 120.3C87.6333 119.167 85.1 118.6 82.1 118.6C78.3667 118.6 75.4 119.467 73.2 121.2C71.0667 122.867 70 125.1 70 127.9C70 129.833 70.4333 131.433 71.3 132.7C72.2333 133.967 73.8667 135.067 76.2 136C78.5333 136.867 81.8 137.8 86 138.8C92.3333 140.133 97.3667 141.833 101.1 143.9C104.833 145.967 107.5 148.367 109.1 151.1C110.7 153.833 111.5 156.967 111.5 160.5C111.5 164.833 110.4 168.6 108.2 171.8C106 174.933 102.9 177.367 98.9 179.1C94.9 180.767 90.2 181.6 84.8 181.6Z" fill="#F5F5F5"/>
</svg>
