<svg width="1505" height="344" viewBox="0 0 1505 344" fill="none" xmlns="http://www.w3.org/2000/svg">
<rect width="4" height="4" fill="#292E3A"/>
<rect x="68" width="4" height="4" fill="#292E3A"/>
<rect x="136" width="4" height="4" fill="#292E3A"/>
<rect x="204" width="4" height="4" fill="#292E3A"/>
<rect x="272" width="4" height="4" fill="#292E3A"/>
<rect x="340" width="4" height="4" fill="#292E3A"/>
<rect x="408" width="4" height="4" fill="#292E3A"/>
<rect x="476" width="4" height="4" fill="#292E3A"/>
<rect x="544" width="4" height="4" fill="#292E3A"/>
<rect x="612" width="4" height="4" fill="#292E3A"/>
<rect x="680" width="4" height="4" fill="#292E3A"/>
<rect x="748" width="4" height="4" fill="#292E3A"/>
<rect x="816" width="4" height="4" fill="#292E3A"/>
<rect x="884" width="4" height="4" fill="#292E3A"/>
<rect x="952" width="4" height="4" fill="#292E3A"/>
<rect x="1020" width="4" height="4" fill="#292E3A"/>
<rect x="1088" width="4" height="4" fill="#292E3A"/>
<rect x="1156" width="4" height="4" fill="#292E3A"/>
<rect x="1224" width="4" height="4" fill="#292E3A"/>
<rect x="1292" width="4" height="4" fill="#292E3A"/>
<rect x="1360" width="4" height="4" fill="#292E3A"/>
<rect x="1428" width="4" height="4" fill="#292E3A"/>
<rect x="1496" width="4" height="4" fill="#292E3A"/>
<rect y="68" width="4" height="4" fill="#292E3A"/>
<rect x="68" y="68" width="4" height="4" fill="#292E3A"/>
<rect x="136" y="68" width="4" height="4" fill="#292E3A"/>
<rect x="204" y="68" width="4" height="4" fill="#292E3A"/>
<rect x="272" y="68" width="4" height="4" fill="#292E3A"/>
<rect x="340" y="68" width="4" height="4" fill="#292E3A"/>
<rect x="408" y="68" width="4" height="4" fill="#292E3A"/>
<rect x="476" y="68" width="4" height="4" fill="#292E3A"/>
<rect x="544" y="68" width="4" height="4" fill="#292E3A"/>
<rect x="612" y="68" width="4" height="4" fill="#292E3A"/>
<rect x="680" y="68" width="4" height="4" fill="#292E3A"/>
<rect x="748" y="68" width="4" height="4" fill="#292E3A"/>
<rect x="816" y="68" width="4" height="4" fill="#292E3A"/>
<rect x="884" y="68" width="4" height="4" fill="#292E3A"/>
<rect x="952" y="68" width="4" height="4" fill="#292E3A"/>
<rect x="1020" y="68" width="4" height="4" fill="#292E3A"/>
<rect x="1088" y="68" width="4" height="4" fill="#292E3A"/>
<rect x="1156" y="68" width="4" height="4" fill="#292E3A"/>
<rect x="1224" y="68" width="4" height="4" fill="#292E3A"/>
<rect x="1292" y="68" width="4" height="4" fill="#292E3A"/>
<rect x="1360" y="68" width="4" height="4" fill="#292E3A"/>
<rect x="1428" y="68" width="4" height="4" fill="#292E3A"/>
<rect x="1496" y="68" width="4" height="4" fill="#292E3A"/>
<rect y="136" width="4" height="4" fill="#292E3A"/>
<rect x="68" y="136" width="4" height="4" fill="#292E3A"/>
<rect x="136" y="136" width="4" height="4" fill="#292E3A"/>
<rect x="204" y="136" width="4" height="4" fill="#292E3A"/>
<rect x="272" y="136" width="4" height="4" fill="#292E3A"/>
<rect x="340" y="136" width="4" height="4" fill="#292E3A"/>
<rect x="408" y="136" width="4" height="4" fill="#292E3A"/>
<rect x="476" y="136" width="4" height="4" fill="#292E3A"/>
<rect x="544" y="136" width="4" height="4" fill="#292E3A"/>
<rect x="612" y="136" width="4" height="4" fill="#292E3A"/>
<rect x="680" y="136" width="4" height="4" fill="#292E3A"/>
<rect x="748" y="136" width="4" height="4" fill="#292E3A"/>
<rect x="816" y="136" width="4" height="4" fill="#292E3A"/>
<rect x="884" y="136" width="4" height="4" fill="#292E3A"/>
<rect x="952" y="136" width="4" height="4" fill="#292E3A"/>
<rect x="1020" y="136" width="4" height="4" fill="#292E3A"/>
<rect x="1088" y="136" width="4" height="4" fill="#292E3A"/>
<rect x="1156" y="136" width="4" height="4" fill="#292E3A"/>
<rect x="1224" y="136" width="4" height="4" fill="#292E3A"/>
<rect x="1292" y="136" width="4" height="4" fill="#292E3A"/>
<rect x="1360" y="136" width="4" height="4" fill="#292E3A"/>
<rect x="1428" y="136" width="4" height="4" fill="#292E3A"/>
<rect x="1496" y="136" width="4" height="4" fill="#292E3A"/>
<rect y="204" width="4" height="4" fill="#292E3A"/>
<rect x="68" y="204" width="4" height="4" fill="#292E3A"/>
<rect x="136" y="204" width="4" height="4" fill="#292E3A"/>
<rect x="204" y="204" width="4" height="4" fill="#292E3A"/>
<rect x="272" y="204" width="4" height="4" fill="#292E3A"/>
<rect x="340" y="204" width="4" height="4" fill="#292E3A"/>
<rect x="408" y="204" width="4" height="4" fill="#292E3A"/>
<rect x="476" y="204" width="4" height="4" fill="#292E3A"/>
<rect x="544" y="204" width="4" height="4" fill="#292E3A"/>
<rect x="612" y="204" width="4" height="4" fill="#292E3A"/>
<rect x="680" y="204" width="4" height="4" fill="#292E3A"/>
<rect x="748" y="204" width="4" height="4" fill="#292E3A"/>
<rect x="816" y="204" width="4" height="4" fill="#292E3A"/>
<rect x="884" y="204" width="4" height="4" fill="#292E3A"/>
<rect x="952" y="204" width="4" height="4" fill="#292E3A"/>
<rect x="1020" y="204" width="4" height="4" fill="#292E3A"/>
<rect x="1088" y="204" width="4" height="4" fill="#292E3A"/>
<rect x="1156" y="204" width="4" height="4" fill="#292E3A"/>
<rect x="1224" y="204" width="4" height="4" fill="#292E3A"/>
<rect x="1292" y="204" width="4" height="4" fill="#292E3A"/>
<rect x="1360" y="204" width="4" height="4" fill="#292E3A"/>
<rect x="1428" y="204" width="4" height="4" fill="#292E3A"/>
<rect x="1496" y="204" width="4" height="4" fill="#292E3A"/>
<rect y="272" width="4" height="4" fill="#292E3A"/>
<rect x="68" y="272" width="4" height="4" fill="#292E3A"/>
<rect x="136" y="272" width="4" height="4" fill="#292E3A"/>
<rect x="204" y="272" width="4" height="4" fill="#292E3A"/>
<rect x="272" y="272" width="4" height="4" fill="#292E3A"/>
<rect x="340" y="272" width="4" height="4" fill="#292E3A"/>
<rect x="408" y="272" width="4" height="4" fill="#292E3A"/>
<rect x="476" y="272" width="4" height="4" fill="#292E3A"/>
<rect x="544" y="272" width="4" height="4" fill="#292E3A"/>
<rect x="612" y="272" width="4" height="4" fill="#292E3A"/>
<rect x="680" y="272" width="4" height="4" fill="#292E3A"/>
<rect x="748" y="272" width="4" height="4" fill="#292E3A"/>
<rect x="816" y="272" width="4" height="4" fill="#292E3A"/>
<rect x="884" y="272" width="4" height="4" fill="#292E3A"/>
<rect x="952" y="272" width="4" height="4" fill="#292E3A"/>
<rect x="1020" y="272" width="4" height="4" fill="#292E3A"/>
<rect x="1088" y="272" width="4" height="4" fill="#292E3A"/>
<rect x="1156" y="272" width="4" height="4" fill="#292E3A"/>
<rect x="1224" y="272" width="4" height="4" fill="#292E3A"/>
<rect x="1292" y="272" width="4" height="4" fill="#292E3A"/>
<rect x="1360" y="272" width="4" height="4" fill="#292E3A"/>
<rect x="1428" y="272" width="4" height="4" fill="#292E3A"/>
<rect x="1496" y="272" width="4" height="4" fill="#292E3A"/>
<rect y="340" width="4" height="4" fill="#292E3A"/>
<rect x="68" y="340" width="4" height="4" fill="#292E3A"/>
<rect x="136" y="340" width="4" height="4" fill="#292E3A"/>
<rect x="204" y="340" width="4" height="4" fill="#292E3A"/>
<rect x="272" y="340" width="4" height="4" fill="#292E3A"/>
<rect x="340" y="340" width="4" height="4" fill="#292E3A"/>
<rect x="408" y="340" width="4" height="4" fill="#292E3A"/>
<rect x="476" y="340" width="4" height="4" fill="#292E3A"/>
<rect x="544" y="340" width="4" height="4" fill="#292E3A"/>
<rect x="612" y="340" width="4" height="4" fill="#292E3A"/>
<rect x="680" y="340" width="4" height="4" fill="#292E3A"/>
<rect x="748" y="340" width="4" height="4" fill="#292E3A"/>
<rect x="816" y="340" width="4" height="4" fill="#292E3A"/>
<rect x="884" y="340" width="4" height="4" fill="#292E3A"/>
<rect x="952" y="340" width="4" height="4" fill="#292E3A"/>
<rect x="1020" y="340" width="4" height="4" fill="#292E3A"/>
<rect x="1088" y="340" width="4" height="4" fill="#292E3A"/>
<rect x="1156" y="340" width="4" height="4" fill="#292E3A"/>
<rect x="1224" y="340" width="4" height="4" fill="#292E3A"/>
<rect x="1292" y="340" width="4" height="4" fill="#292E3A"/>
<rect x="1360" y="340" width="4" height="4" fill="#292E3A"/>
<rect x="1428" y="340" width="4" height="4" fill="#292E3A"/>
<rect x="1496" y="340" width="4" height="4" fill="#292E3A"/>
</svg>
